<?xml version="1.0" standalone="no"?>
<!DOCTYPE svg PUBLIC "-//W3C//DTD SVG 20010904//EN"
 "http://www.w3.org/TR/2001/REC-SVG-20010904/DTD/svg10.dtd">
<svg version="1.0" xmlns="http://www.w3.org/2000/svg"
 width="100.000000pt" height="100.000000pt" viewBox="0 0 100.000000 100.000000"
 preserveAspectRatio="xMidYMid meet">
<metadata>
Created by potrace 1.14, written by Peter Selinger 2001-2017
</metadata>
<g transform="translate(0.000000,100.000000) scale(0.100000,-0.100000)"
fill="#000000" stroke="none">
<path d="M187 707 c-15 -11 -16 -33 -10 -205 6 -176 8 -194 25 -203 14 -8 24
-7 35 2 12 11 14 26 9 75 -5 47 -3 64 8 73 21 18 52 5 77 -32 12 -18 33 -44
47 -59 43 -47 122 -49 122 -4 0 19 -7 24 -35 29 -26 4 -50 21 -94 68 l-60 62
33 38 c39 46 80 125 71 139 -14 22 -37 8 -69 -42 -19 -29 -50 -68 -69 -86
l-34 -33 -7 32 c-3 17 -6 55 -6 84 0 59 -16 83 -43 62z"/>
<path d="M558 699 c-29 -11 -40 -29 -29 -48 6 -9 15 -8 37 4 42 21 103 19 154
-7 50 -26 59 -47 36 -83 -15 -22 -93 -71 -101 -63 -2 2 -6 34 -9 72 -6 75 -13
90 -36 76 -11 -7 -15 -28 -15 -81 0 -70 -1 -73 -27 -81 -31 -11 -28 -33 6 -42
20 -5 22 -10 18 -69 -3 -50 -1 -66 13 -77 27 -23 45 11 45 86 l0 63 54 15 c91
27 141 111 106 177 -6 10 -33 30 -60 44 -53 27 -139 33 -192 14z"/>
<path d="M465 511 c-8 -15 3 -31 21 -31 9 0 14 7 12 17 -4 20 -24 28 -33 14z"/>
</g>
</svg>
